<?xml version="1.0" encoding="utf-8"?>
<!-- Generator: Adobe Illustrator 16.0.0, SVG Export Plug-In . SVG Version: 6.00 Build 0)  -->
<!DOCTYPE svg PUBLIC "-//W3C//DTD SVG 1.1//EN" "http://www.w3.org/Graphics/SVG/1.1/DTD/svg11.dtd">
<svg version="1.1" id="图层_1" xmlns="http://www.w3.org/2000/svg" xmlns:xlink="http://www.w3.org/1999/xlink" x="0px" y="0px"
	 width="122px" height="52px" viewBox="0 0 122 52" enable-background="new 0 0 122 52" xml:space="preserve">
<g>
	<g>
		<path fill="#040000" d="M3.611,24.937c1.088,1.193,1.633,1.791,2.722,2.984c2.368-2.163,3.595-3.176,6.115-5.063
			c-0.967-1.294-1.451-1.943-2.417-3.238c-0.345-0.462-0.464-0.913-0.351-1.355c0.113-0.442,0.403-0.834,0.873-1.17
			c0.475-0.34,0.945-0.494,1.403-0.464c0.458,0.031,0.85,0.292,1.178,0.774c2.497,3.675,3.745,5.512,6.242,9.188
			c0.328,0.482,0.445,0.931,0.356,1.342s-0.326,0.752-0.716,1.031c-0.396,0.283-0.795,0.395-1.205,0.334
			c-0.409-0.061-0.788-0.317-1.133-0.779c-1.135-1.52-1.703-2.278-2.838-3.798c-2.448,1.833-3.639,2.815-5.939,4.917
			c1.278,1.4,1.917,2.102,3.195,3.502c0.393,0.432,0.569,0.861,0.535,1.286c-0.036,0.426-0.23,0.802-0.587,1.144
			c-0.362,0.346-0.749,0.521-1.167,0.526c-0.419,0.005-0.836-0.192-1.244-0.603c-3.142-3.141-4.713-4.711-7.854-7.853
			c-0.407-0.407-0.588-0.838-0.539-1.292c0.049-0.454,0.294-0.897,0.735-1.319c0.435-0.416,0.887-0.643,1.353-0.685
			C2.791,24.308,3.218,24.507,3.611,24.937z"/>
		<path fill="#040000" d="M28.267,18.134c-2.193,1.029-3.275,1.589-5.398,2.801c0.303,0.515,0.687,0.901,1.146,1.164
			c0.461,0.263,0.94,0.387,1.441,0.378c0.501-0.01,0.986-0.138,1.459-0.383c0.317-0.165,0.59-0.347,0.822-0.545
			c0.231-0.199,0.436-0.427,0.618-0.691c0.182-0.262,0.341-0.526,0.477-0.79c0.136-0.263,0.304-0.63,0.525-1.053
			c0.088-0.168,0.274-0.314,0.539-0.433c0.286-0.128,0.547-0.163,0.782-0.105c0.236,0.059,0.406,0.211,0.513,0.458
			c0.094,0.218,0.106,0.516,0.041,0.891c-0.066,0.375-0.233,0.781-0.496,1.22c-0.263,0.439-0.638,0.879-1.125,1.325
			c-0.487,0.446-1.092,0.853-1.82,1.229c-1.665,0.861-3.162,1.171-4.572,0.894c-1.41-0.277-2.574-1.081-3.448-2.478
			c-0.412-0.657-0.676-1.342-0.781-2.057c-0.106-0.715-0.044-1.422,0.192-2.116c0.236-0.694,0.651-1.359,1.247-1.985
			c0.595-0.627,1.343-1.181,2.236-1.646c1.162-0.605,2.268-0.902,3.289-0.904c1.022-0.002,1.878,0.229,2.566,0.676
			c0.688,0.448,1.167,1.003,1.448,1.657c0.261,0.607,0.223,1.09-0.107,1.448C29.531,17.447,28.999,17.79,28.267,18.134z
			 M22.13,19.64c2.006-1.145,3.027-1.676,5.095-2.662c-0.456-0.777-1.012-1.256-1.674-1.427c-0.662-0.171-1.382-0.064-2.141,0.333
			c-0.725,0.378-1.207,0.9-1.444,1.548C21.729,18.079,21.787,18.816,22.13,19.64z"/>
		<path fill="#040000" d="M34.118,18.993c-1.657-4.244-2.484-6.366-4.14-10.61c-0.191-0.49-0.191-0.916-0.001-1.276
			c0.19-0.36,0.532-0.635,1.025-0.816s0.937-0.198,1.328-0.052c0.39,0.145,0.67,0.471,0.844,0.973
			c1.485,4.306,2.228,6.459,3.714,10.765c0.174,0.503,0.173,0.926,0.004,1.268c-0.169,0.341-0.452,0.582-0.856,0.73
			c-0.396,0.146-0.767,0.138-1.115-0.024C34.573,19.788,34.305,19.471,34.118,18.993z"/>
		<path fill="#040000" d="M39.779,17.048c-1.308-4.363-1.962-6.544-3.269-10.908c-0.151-0.503-0.119-0.929,0.099-1.273
			c0.217-0.343,0.58-0.588,1.083-0.728s0.944-0.12,1.32,0.058c0.375,0.176,0.628,0.524,0.76,1.039
			c1.133,4.412,1.7,6.617,2.833,11.029c0.132,0.516,0.099,0.935-0.096,1.262c-0.195,0.326-0.496,0.543-0.909,0.658
			c-0.404,0.112-0.772,0.073-1.104-0.116C40.166,17.877,39.927,17.539,39.779,17.048z"/>
		<path fill="#040000" d="M56.132,10.363c0.049,0.781-0.048,1.508-0.279,2.186c-0.23,0.677-0.583,1.272-1.053,1.788
			c-0.469,0.516-1.037,0.932-1.705,1.259c-0.669,0.327-1.431,0.548-2.293,0.67c-0.856,0.121-1.644,0.119-2.373-0.015
			c-0.729-0.132-1.39-0.38-1.99-0.747c-0.601-0.367-1.106-0.836-1.513-1.413c-0.406-0.578-0.701-1.25-0.873-2.02
			c-0.173-0.776-0.193-1.518-0.047-2.225s0.443-1.347,0.9-1.916c0.456-0.568,1.06-1.052,1.81-1.44
			c0.75-0.388,1.614-0.655,2.581-0.792c0.981-0.139,1.891-0.121,2.718,0.047c0.827,0.168,1.545,0.471,2.147,0.896
			c0.603,0.425,1.069,0.958,1.401,1.591C55.896,8.865,56.083,9.575,56.132,10.363z M53.07,10.615
			c-0.109-1.065-0.473-1.867-1.104-2.396c-0.631-0.529-1.438-0.733-2.396-0.598c-0.62,0.088-1.145,0.304-1.571,0.643
			c-0.425,0.338-0.718,0.788-0.877,1.344c-0.159,0.556-0.17,1.173-0.046,1.854c0.123,0.674,0.35,1.243,0.674,1.706
			c0.324,0.463,0.721,0.792,1.196,0.991c0.474,0.199,0.998,0.255,1.58,0.173c0.878-0.125,1.541-0.506,2.002-1.161
			C52.99,12.516,53.178,11.667,53.07,10.615z"/>
		<path fill="#040000" d="M70.023,13.63c-0.609-3.479-0.975-5.219-1.816-8.685c-1.443,3.269-2.105,4.92-3.316,8.243
			c-0.233,0.629-0.412,1.081-0.541,1.354c-0.129,0.272-0.345,0.513-0.64,0.723s-0.677,0.309-1.149,0.299
			c-0.384-0.008-0.697-0.078-0.942-0.211c-0.247-0.133-0.449-0.321-0.603-0.561c-0.154-0.24-0.281-0.524-0.382-0.854
			c-0.101-0.33-0.192-0.635-0.274-0.917c-1.087-3.787-1.7-5.672-3.053-9.413c-0.202-0.542-0.312-0.957-0.325-1.246
			c-0.017-0.365,0.132-0.68,0.454-0.943c0.323-0.264,0.733-0.404,1.226-0.417c0.678-0.018,1.137,0.144,1.374,0.475
			c0.237,0.331,0.443,0.813,0.617,1.447c0.956,3.289,1.385,4.94,2.159,8.251c1.023-3.058,1.584-4.579,2.799-7.598
			c0.229-0.579,0.434-1.016,0.607-1.313c0.176-0.297,0.449-0.546,0.822-0.745c0.373-0.199,0.871-0.276,1.488-0.223
			c0.625,0.054,1.101,0.219,1.42,0.487c0.318,0.268,0.529,0.549,0.631,0.838s0.224,0.759,0.365,1.415
			c0.688,3.184,0.984,4.778,1.479,7.968c1.332-3.129,2.044-4.682,3.556-7.758c0.188-0.403,0.354-0.714,0.5-0.935
			c0.146-0.221,0.364-0.405,0.65-0.546s0.669-0.165,1.146-0.069c0.477,0.096,0.858,0.303,1.137,0.615
			c0.277,0.312,0.373,0.652,0.292,1.014c-0.058,0.256-0.238,0.645-0.537,1.17c-1.983,3.452-2.913,5.205-4.64,8.748
			c-0.293,0.598-0.521,1.035-0.688,1.308c-0.168,0.273-0.405,0.496-0.717,0.671s-0.713,0.223-1.209,0.147
			c-0.47-0.071-0.832-0.232-1.087-0.486c-0.256-0.254-0.42-0.522-0.497-0.807S70.15,14.31,70.023,13.63z"/>
		<path fill="#040000" d="M90.359,15.953c-0.297,0.725-0.703,1.336-1.211,1.845c-0.506,0.509-1.086,0.89-1.739,1.148
			c-0.653,0.258-1.354,0.384-2.104,0.387c-0.752,0.002-1.539-0.131-2.375-0.397c-0.83-0.264-1.545-0.606-2.146-1.043
			c-0.604-0.436-1.092-0.946-1.475-1.536c-0.385-0.591-0.639-1.233-0.754-1.929c-0.115-0.695-0.089-1.429,0.09-2.196
			c0.182-0.774,0.486-1.451,0.926-2.025c0.438-0.574,0.988-1.021,1.647-1.336s1.415-0.489,2.263-0.514
			c0.849-0.024,1.746,0.109,2.684,0.407c0.952,0.302,1.771,0.718,2.453,1.23c0.68,0.513,1.203,1.098,1.568,1.745
			c0.363,0.647,0.556,1.332,0.582,2.047C90.796,14.5,90.657,15.223,90.359,15.953z M87.452,14.835
			c0.364-1.006,0.384-1.888,0.04-2.639s-0.988-1.288-1.918-1.583c-0.602-0.191-1.172-0.223-1.705-0.104
			c-0.532,0.12-0.992,0.398-1.378,0.83c-0.386,0.432-0.665,0.983-0.849,1.65c-0.184,0.661-0.226,1.271-0.135,1.829
			c0.092,0.558,0.309,1.029,0.651,1.414c0.343,0.385,0.797,0.663,1.36,0.842c0.853,0.27,1.619,0.216,2.324-0.172
			C86.552,16.515,87.092,15.831,87.452,14.835z"/>
		<path fill="#040000" d="M94.73,19.62c-0.389,0.787-0.582,1.18-0.972,1.966c-0.235,0.477-0.541,0.771-0.907,0.889
			c-0.367,0.117-0.736,0.084-1.123-0.097c-0.379-0.178-0.637-0.443-0.771-0.799c-0.137-0.357-0.1-0.777,0.113-1.257
			c1.189-2.671,1.783-4.006,2.974-6.677c0.479-1.078,1.218-1.403,2.198-0.943c0.501,0.235,0.8,0.535,0.898,0.89
			c0.098,0.355-0.179,1.272-0.179,1.272c0.026,0.025,1.138-0.492,1.636-0.547c0.498-0.055,1.064,0.083,1.686,0.417
			s1.152,0.789,1.592,1.356c0.439,0.568,0.537,1.052,0.307,1.444c-0.162,0.276-0.414,0.434-0.757,0.476s-0.653-0.014-0.93-0.17
			c-0.104-0.059-0.327-0.253-0.671-0.578c-0.346-0.325-0.674-0.569-0.983-0.734c-0.421-0.224-0.815-0.314-1.175-0.272
			s-0.703,0.207-1.027,0.488c-0.326,0.281-0.637,0.655-0.936,1.119C95.404,18.328,95.081,18.914,94.73,19.62z"/>
		<path fill="#040000" d="M99.508,24.756c2.373-3.888,3.561-5.833,5.934-9.721c0.273-0.449,0.613-0.705,1.021-0.769
			c0.407-0.063,0.844,0.047,1.297,0.336s0.744,0.639,0.872,1.043c0.127,0.403,0.042,0.825-0.253,1.267
			c-2.529,3.788-3.796,5.683-6.324,9.47c-0.297,0.442-0.635,0.695-1.016,0.764c-0.38,0.067-0.753-0.018-1.124-0.255
			c-0.364-0.232-0.587-0.536-0.674-0.914C99.154,25.602,99.24,25.194,99.508,24.756z"/>
		<path fill="#040000" d="M111.066,33.62c0.07-0.076,0.104-0.114,0.176-0.19c-0.582,0.012-1.104-0.021-1.569-0.099
			c-0.468-0.08-0.92-0.219-1.356-0.422c-0.436-0.203-0.863-0.479-1.282-0.826c-0.558-0.459-0.99-0.979-1.312-1.566
			c-0.322-0.59-0.519-1.214-0.588-1.881c-0.068-0.668-0.005-1.34,0.191-2.021c0.197-0.682,0.516-1.341,0.968-1.972
			c0.956-1.334,2.104-2.089,3.478-2.208c1.373-0.12,2.758,0.365,4.084,1.464c0.769,0.635,1.324,1.287,1.666,1.935
			s0.569,1.393,0.679,2.227c1.051-1.139,1.577-1.711,2.629-2.85c0.364-0.396,0.751-0.595,1.157-0.593
			c0.406,0.001,0.813,0.196,1.215,0.582c0.4,0.386,0.617,0.779,0.652,1.17c0.037,0.391-0.121,0.762-0.47,1.109
			c-3.274,3.274-4.911,4.912-8.187,8.187c-0.354,0.354-0.717,0.521-1.084,0.508c-0.369-0.014-0.707-0.167-1.014-0.462
			c-0.303-0.29-0.463-0.621-0.484-0.998C110.593,34.34,110.74,33.974,111.066,33.62z M108.82,26.648
			c-0.438,0.562-0.706,1.122-0.809,1.679c-0.102,0.557-0.056,1.076,0.139,1.561c0.193,0.484,0.496,0.896,0.908,1.246
			c0.416,0.354,0.869,0.587,1.369,0.708s1.021,0.095,1.561-0.086c0.537-0.181,1.058-0.542,1.562-1.091
			c0.474-0.514,0.775-1.053,0.899-1.621c0.124-0.566,0.086-1.119-0.112-1.649s-0.526-0.992-0.979-1.377
			c-0.473-0.401-0.985-0.648-1.532-0.742c-0.548-0.094-1.082-0.019-1.603,0.218C109.701,25.73,109.234,26.119,108.82,26.648z"/>
	</g>
</g>
<g>
	<path fill="#040000" d="M52.598,49.181c-2.266,0-3.451-0.891-3.555-2.672h1.477c0.01,1.011,0.698,1.516,2.063,1.516
		c0.609,0,1.074-0.126,1.395-0.379s0.48-0.568,0.48-0.949c0-0.375-0.156-0.64-0.469-0.793c-0.313-0.152-0.957-0.353-1.934-0.598
		s-1.69-0.52-2.141-0.82c-0.451-0.302-0.676-0.832-0.676-1.594c0-0.688,0.28-1.257,0.84-1.707s1.309-0.676,2.246-0.676
		c2.172,0,3.281,0.773,3.328,2.32h-1.469c-0.052-0.781-0.638-1.172-1.758-1.172c-0.495,0-0.905,0.094-1.23,0.28
		c-0.326,0.188-0.488,0.461-0.488,0.82c0,0.323,0.125,0.556,0.375,0.698c0.25,0.144,0.876,0.336,1.879,0.578
		c1.002,0.242,1.747,0.524,2.234,0.849c0.487,0.323,0.73,0.88,0.73,1.672c0,0.755-0.301,1.382-0.902,1.879
		S53.613,49.181,52.598,49.181z"/>
	<path fill="#040000" d="M64.34,40.696l-3.133,8.289h-1.313l-3.133-8.289h1.594l2.195,6.484l2.195-6.484H64.34z"/>
	<path fill="#040000" d="M72.355,48.345c0,2.667-1.203,4-3.609,4c-1.042,0-1.863-0.227-2.465-0.68s-0.902-1.063-0.902-1.828h1.523
		c0,0.906,0.609,1.359,1.828,1.359c0.688,0,1.219-0.188,1.594-0.566c0.375-0.379,0.563-1.118,0.563-2.223v-0.414
		c-0.656,0.791-1.445,1.188-2.367,1.188c-1.084,0-1.922-0.387-2.516-1.156s-0.891-1.81-0.891-3.117c0-1.354,0.332-2.426,0.996-3.215
		s1.498-1.184,2.504-1.184c0.896,0,1.652,0.275,2.273,0.828v-0.641h1.469V48.345L72.355,48.345z M70.887,46.603v-3.938
		c-0.636-0.672-1.361-1.008-2.18-1.008c-0.631,0-1.135,0.271-1.512,0.815c-0.379,0.544-0.566,1.354-0.566,2.435
		c0,1.021,0.178,1.795,0.535,2.323c0.355,0.528,0.85,0.793,1.48,0.793C69.467,48.024,70.215,47.551,70.887,46.603z"/>
</g>
</svg>
